<svg enable-background="new 0 0 512 512" viewBox="0 0 512 512" xmlns="http://www.w3.org/2000/svg"><circle cx="256" cy="256" fill="#ff5419" r="256"/><path d="m509.166 217.838-101.992-101.992-312.564 286.362 103.127 103.128c18.717 4.356 38.219 6.664 58.263 6.664 141.384 0 256-114.616 256-256 0-12.969-.974-25.71-2.834-38.162z" fill="#bc2e0d"/><path d="m430.916 139.588-40.415-40.415c-7.385-7.385-19.199-7.877-27.172-1.131l-202.173 171.072-16.637 83.184-15.629 15.629-34.282 34.282 49.911 16.637 17.646-17.646 15.629-15.629 83.184-16.637 171.067-202.174c6.748-7.973 6.256-19.787-1.129-27.172z" fill="#ffedb5"/><path d="m430.916 139.588-20.08-20.08-292.631 290.564 26.315 8.771 17.646-17.646 15.629-15.629 83.184-16.637 171.068-202.173c6.746-7.971 6.254-19.785-1.131-27.17z" fill="#fee187"/><path d="m260.977 368.933-99.821-99.821 202.173-171.068c7.973-6.747 19.787-6.256 27.172 1.131l40.415 40.415c7.385 7.385 7.877 19.199 1.131 27.172z" fill="#ffc61b"/><path d="m430.916 139.588-20.08-20.08-200.349 198.935 50.491 50.491 171.068-202.173c6.747-7.974 6.255-19.788-1.13-27.173z" fill="#e5ab07"/><path d="m94.61 402.208 49.91 16.636 16.636-16.636-33.273-33.275z" fill="#ffc61b"/><path d="m118.205 410.072 26.315 8.772 16.636-16.636-17.453-17.453z" fill="#e5ab07"/></svg>